PathFileType	4	(X/Y/Z)	Walk8.trc
DataRate	CameraRate	NumFrames	NumMarkers	Units	OrigDataRate	OrigDataStartFrame	OrigNumFrames
200.000000	200.000000	7	61	mm	200.000000	264	439
Frame#	Times		LFHD		RFHD		LBHD		CLAV		STRN		LASI		RASI		RACR1		RUA1		RFA1		RWRR		RWRU		RCAR		LACR1		LUA1		LFA1		LWRU		LCAR		RTH3		RTH2		RTH4		RMFC		RTB1		RTB3		RTB4		RMT5		LTH1		LTH3		LTH2		LTH4		LLFC		LTB1		LTB3		LTB2		LTB4		LMMAL		LToe		RLFC		RTH1		RElbow		RToe		RTB2		T10		LElbow		RMT1		RMMAL		LMFC		LPSI		RBack		LWRR		LMT5		RBHD		RLMAL		LCAL		RPSI		RCAL		LLMAL		RElbowM		C7		LMT1		LElbowM
			X1	Y1	Z1	X2	Y2	Z2	X3	Y3	Z3	X4	Y4	Z4	X5	Y5	Z5	X6	Y6	Z6	X7	Y7	Z7	X8	Y8	Z8	X9	Y9	Z9	X10	Y10	Z10	X11	Y11	Z11	X12	Y12	Z12	X13	Y13	Z13	X14	Y14	Z14	X15	Y15	Z15	X16	Y16	Z16	X17	Y17	Z17	X18	Y18	Z18	X19	Y19	Z19	X20	Y20	Z20	X21	Y21	Z21	X22	Y22	Z22	X23	Y23	Z23	X24	Y24	Z24	X25	Y25	Z25	X26	Y26	Z26	X27	Y27	Z27	X28	Y28	Z28	X29	Y29	Z29	X30	Y30	Z30	X31	Y31	Z31	X32	Y32	Z32	X33	Y33	Z33	X34	Y34	Z34	X35	Y35	Z35	X36	Y36	Z36	X37	Y37	Z37	X38	Y38	Z38	X39	Y39	Z39	X40	Y40	Z40	X41	Y41	Z41	X42	Y42	Z42	X43	Y43	Z43	X44	Y44	Z44	X45	Y45	Z45	X46	Y46	Z46	X47	Y47	Z47	X48	Y48	Z48	X49	Y49	Z49	X50	Y50	Z50	X51	Y51	Z51	X52	Y52	Z52	X53	Y53	Z53	X54	Y54	Z54	X55	Y55	Z55	X56	Y56	Z56	X57	Y57	Z57	X58	Y58	Z58	X59	Y59	Z59	X60	Y60	Z60	X61	Y61	Z61

264	1.32	364.35	1566.9	-46.881	357.71	1569.6	52.45	228.22	1492.1	-76.398	339.6	1288.7	4.558	362.32	1153.5	8.9118	311.5	875.83	-110.43	331.66	899.35	136.82	257.87	1317.6	169.01	227.27	1151.7	224.16	210.41	866.28	296.94	192.66	745.64	304.8	257.38	747.68	279.74	229.48	680.54	322.07	272.54	1338.4	-149.91	274.85	1171	-223.38	388.18	919.92	-278.83	496.63	869.12	-246.26	528.58	806.81	-281.19	382.5	585.08	182.33	399.25	689.21	174.06	354.07	662.28	203.12	410.68	437.91	22.499	479.83	350.38	113.57	494.18	179.23	93.801	487.65	264.02	105.24	561.26	28.329	115.91	222.77	717.81	-165.27	177.39	554.72	-137.45	253.61	625.31	-133.59	199.02	635.47	-152.64	123.29	422.82	-121.09	91.967	315.36	-58.739	-32.545	199.67	-49.561	14.02	269.46	-113.28	27.016	259	-54.96	-125.33	157.53	-12.584	-34.265	21.197	-24.32	437.52	450.89	146.16	325.63	741.87	225.45	187.42	991.78	258.54	645.13	49.763	67.255	441.87	256.2	144.91	150.71	1180.4	4.8028	281.39	1018.3	-266.83	595.74	47.89	36.025	468.25	85.825	25.61	106.98	418.56	10.392	143.49	936.36	-16.669	146.07	1265.5	68.198	449.36	820.82	-262.24	-106.92	37.011	-80.662	220.75	1502.1	66.012	454.93	61.688	104.2	-202.26	169.76	-52.116	154.23	936.87	82.795	408.96	34.016	58.127	-146.84	150.63	-92.384	171.59	983.9	182.53	228.52	1391	1.064	-81.334	36.876	-0.18993	261.74	987.15	-201.04
265	1.325	371.65	1567.4	-46.275	365.1	1570.1	53.06	235.78	1492.1	-75.624	347.74	1289	5.2252	370.57	1153.9	9.7708	319.76	875.49	-109.42	339.42	900.32	137.41	266.08	1317.8	169.7	236.06	1151.9	224.85	219.71	866.41	297.65	202	745.78	305.63	266.64	747.78	280.31	238.9	680.67	322.76	280.72	1338.5	-149.32	281.71	1170.8	-222.4	392.73	918.49	-278	500.79	866.57	-246.17	531.72	803.96	-281.39	390.65	586.29	182.63	407.03	690.49	175	361.8	663.29	203.59	418.34	439.25	22.968	486.09	349.91	113.16	497.43	178.47	93.474	492.45	263.41	104.87	561.97	26.983	115.99	232.54	716.81	-164.5	189.29	553.1	-137.21	264.49	624.66	-132.86	209.84	634.16	-152.05	136.47	420.95	-121.29	103.09	314.15	-59.088	-24.071	201.33	-50.472	24.278	270.12	-113.95	36.852	259.27	-55.629	-118	161.43	-14.077	-33.456	20.832	-24.449	445.4	451.55	146.26	332.95	742.65	226.21	196.56	991.88	259.39	646.24	46.341	66.362	447.16	256.37	145.25	158.81	1180.7	5.2655	287.01	1018	-265.45	596.5	45.459	35.433	469.39	85.518	25.574	120.03	416.34	10.181	151.46	936.32	-17.21	154.23	1265.7	68.923	452.89	818.72	-261.59	-103.85	39.7	-81.316	228.42	1502.2	66.787	456.21	61.599	104.29	-193.77	176.64	-54.038	161.91	937.27	82.376	409.39	34.633	58.501	-139.26	155.19	-93.87	180.58	983.98	183.27	236.61	1391.2	1.7744	-79.046	38.806	-0.88319	267.72	987.16	-199.41
266	1.33	378.97	1568	-45.65	372.5	1570.7	53.689	243.37	1492.1	-74.861	355.85	1289.4	5.8541	378.77	1154.3	10.602	327.93	875.21	-108.43	347.13	901.36	138	274.31	1318.1	170.36	244.87	1152.1	225.53	229.12	866.62	298.34	211.51	745.99	306.45	276.04	747.98	280.83	248.51	680.88	323.42	288.87	1338.7	-148.73	288.59	1170.7	-221.4	397.13	917.07	-277.12	504.75	863.95	-246.05	534.58	801.03	-281.56	398.48	587.37	183.03	414.6	691.63	176.12	369.27	664.2	204.15	425.72	440.49	23.47	492.07	349.39	112.84	500.47	177.72	93.194	496.99	262.78	104.57	562.56	25.869	116.17	242.36	715.84	-163.74	201.4	551.48	-136.97	275.49	624.09	-132.14	220.79	632.85	-151.48	149.98	419.06	-121.45	114.58	313.01	-59.365	-15.157	203.1	-51.303	34.975	270.82	-114.55	47.092	259.63	-56.218	-110.18	165.46	-15.49	-32.222	20.476	-24.685	452.98	452.1	146.4	340.06	743.35	227.03	205.72	992.07	260.24	647.18	43.292	65.615	452.19	256.47	145.63	166.84	1181.1	5.7193	292.57	1017.8	-264.04	597.13	43.324	34.952	470.4	85.268	25.568	133.42	414.14	10.036	159.36	936.31	-17.766	162.36	1266	69.644	456.18	816.6	-260.87	-100.24	42.707	-82.031	236.1	1502.2	67.551	457.36	61.525	104.42	-184.72	183.6	-55.881	169.52	937.68	81.931	409.78	35.184	58.869	-131.16	159.88	-95.277	189.59	984.15	184.01	244.7	1391.5	2.4626	-76.19	41.004	-1.6752	273.65	987.26	-197.74
267	1.335	386.3	1568.6	-45.01	379.91	1571.3	54.334	250.96	1492.2	-74.113	363.92	1289.8	6.4391	386.9	1154.7	11.395	335.99	875	-107.44	354.8	902.44	138.62	282.54	1318.5	170.99	253.69	1152.4	226.19	238.62	866.89	299.01	221.17	746.25	307.23	285.59	748.27	281.32	258.31	681.15	324.04	296.98	1339	-148.16	295.5	1170.7	-220.4	401.38	915.67	-276.22	508.5	861.26	-245.92	537.15	798	-281.69	405.97	588.3	183.51	421.98	692.58	177.39	376.47	664.99	204.78	432.82	441.6	23.998	497.76	348.81	112.62	503.3	176.97	92.954	501.27	262.11	104.33	563.04	24.968	116.42	252.23	714.91	-163.01	213.69	549.9	-136.75	286.59	623.6	-131.44	231.85	631.58	-150.93	163.8	417.18	-121.59	126.41	311.96	-59.561	-5.8073	204.98	-52.041	46.092	271.56	-115.08	57.721	260.1	-56.714	-101.88	169.62	-16.794	-30.482	20.156	-25.047	460.23	452.53	146.59	346.97	743.95	227.9	214.91	992.31	261.09	647.96	40.608	65.003	456.93	256.51	146.03	174.81	1181.5	6.1664	298.08	1017.7	-262.6	597.65	41.473	34.569	471.28	85.066	25.586	147.12	411.97	9.966	167.17	936.35	-18.317	170.48	1266.4	70.36	459.23	814.45	-260.09	-96.048	46.018	-82.8	243.78	1502.3	68.301	458.38	61.463	104.57	-175.15	190.58	-57.616	177.07	938.1	81.478	410.11	35.666	59.221	-122.55	164.65	-96.587	198.6	984.38	184.74	252.77	1391.9	3.1296	-72.689	43.459	-2.5641	279.53	987.46	-196.02
268	1.34	393.64	1569.3	-44.357	387.32	1572	54.991	258.58	1492.4	-73.381	371.95	1290.2	6.9755	394.96	1155.1	12.141	343.96	874.88	-106.49	362.42	903.54	139.25	290.78	1318.9	171.59	262.52	1152.7	226.83	248.21	867.21	299.67	231	746.56	308	295.29	748.63	281.76	268.3	681.49	324.62	305.04	1339.3	-147.6	302.43	1170.8	-219.39	405.5	914.28	-275.28	512.05	858.5	-245.76	539.45	794.89	-281.78	413.09	589.07	184.05	429.16	693.33	178.82	383.39	665.65	205.46	439.63	442.56	24.544	503.12	348.19	112.5	505.91	176.22	92.752	505.27	261.43	104.17	563.44	24.257	116.74	262.12	714.03	-162.3	226.14	548.38	-136.54	297.78	623.21	-130.78	243	630.36	-150.41	177.87	415.34	-121.68	138.57	311.03	-59.667	3.9723	206.96	-52.673	57.608	272.34	-115.52	68.723	260.68	-57.104	-93.092	173.87	-17.966	-28.149	19.903	-25.555	467.11	452.82	146.85	353.68	744.46	228.8	224.12	992.61	261.94	648.61	38.278	64.509	461.36	256.48	146.43	182.7	1182	6.6077	303.56	1017.6	-261.13	598.07	39.889	34.266	472.04	84.908	25.622	161.11	409.89	9.9753	174.92	936.43	-18.848	178.57	1266.9	71.074	462.07	812.3	-259.26	-91.209	49.609	-83.612	251.47	1502.5	69.035	459.27	61.408	104.73	-165.06	197.52	-59.214	184.55	938.54	81.031	410.38	36.076	59.552	-113.44	169.48	-97.779	207.62	984.67	185.46	260.81	1392.3	3.7773	-68.468	46.152	-3.5444	285.36	987.75	-194.29
269	1.345	401	1570	-43.697	394.74	1572.6	55.657	266.2	1492.6	-72.669	379.93	1290.7	7.4598	402.95	1155.6	12.831	351.83	874.83	-105.56	369.99	904.68	139.89	299.03	1319.3	172.16	271.35	1153.1	227.45	257.89	867.59	300.32	240.98	746.92	308.74	305.13	749.08	282.17	278.48	681.88	325.16	313.01	1339.7	-147.05	309.37	1170.9	-218.39	409.49	912.91	-274.3	515.41	855.68	-245.57	541.46	791.71	-281.82	419.8	589.66	184.64	436.15	693.87	180.36	390.03	666.18	206.18	446.12	443.33	25.101	508.17	347.52	112.49	508.31	175.49	92.586	509	260.73	104.07	563.74	23.711	117.07	272.02	713.22	-161.62	238.7	546.94	-136.33	309.03	622.93	-130.14	254.22	629.21	-149.91	192.16	413.57	-121.73	151.03	310.23	-59.681	14.174	209.04	-53.19	69.499	273.16	-115.87	80.079	261.37	-57.382	-83.817	178.19	-18.986	-25.135	19.753	-26.223	473.59	452.96	147.17	360.21	744.88	229.7	233.35	992.95	262.8	649.12	36.284	64.116	465.46	256.38	146.84	190.53	1182.6	7.0436	309	1017.7	-259.65	598.39	38.552	34.029	472.67	84.787	25.672	175.34	407.93	10.066	182.59	936.56	-19.343	186.63	1267.4	71.785	464.68	810.15	-258.37	-85.671	53.446	-84.457	259.16	1502.6	69.749	460.04	61.357	104.9	-154.5	204.37	-60.649	191.98	939	80.607	410.61	36.417	59.857	-103.83	174.35	-98.839	216.63	985.01	186.2	268.81	1392.8	4.4073	-63.458	49.055	-4.6061	291.14	988.14	-192.54
270	1.35	408.38	1570.8	-43.032	402.17	1573.3	56.328	273.83	1492.9	-71.977	387.86	1291.2	7.8895	410.86	1156.1	13.457	359.6	874.87	-104.69	377.52	905.82	140.55	307.28	1319.8	172.7	280.17	1153.5	228.05	267.65	868	300.95	251.11	747.31	309.46	315.11	749.59	282.53	288.84	682.33	325.67	320.9	1340.1	-146.53	316.31	1171.1	-217.39	413.35	911.57	-273.3	518.57	852.81	-245.36	543.22	788.46	-281.79	426.12	590.07	185.25	442.93	694.18	182	396.39	666.58	206.91	452.29	443.93	25.664	512.88	346.83	112.59	510.5	174.78	92.458	512.46	260.02	104.05	563.97	23.306	117.43	281.93	712.49	-160.97	251.34	545.6	-136.13	320.32	622.79	-129.55	265.47	628.14	-149.44	206.63	411.91	-121.73	163.76	309.58	-59.603	24.786	211.21	-53.587	81.738	274.04	-116.12	91.771	262.19	-57.544	-74.06	182.55	-19.842	-21.348	19.745	-27.057	479.63	452.96	147.57	366.59	745.22	230.6	242.59	993.33	263.65	649.53	34.603	63.809	469.23	256.23	147.23	198.29	1183.2	7.4739	314.42	1017.8	-258.14	598.62	37.442	33.845	473.19	84.699	25.735	189.76	406.14	10.235	190.19	936.76	-19.79	194.65	1268	72.496	467.09	808.01	-257.42	-79.384	57.485	-85.324	266.84	1502.8	70.442	460.7	61.311	105.08	-143.5	211.07	-61.898	199.37	939.49	80.218	410.78	36.692	60.134	-93.743	179.2	-99.754	225.63	985.37	186.94	276.78	1393.3	5.0216	-57.601	52.133	-5.7359	296.86	988.61	-190.79
